<svg width="470" height="470" xmlns="http://www.w3.org/2000/svg" xmlns:svg="http://www.w3.org/2000/svg">
    <path fill="#ffca00" d="m332.599,425l-135.198,0c-4.142,0 -7.5,3.357 -7.5,7.5s3.358,7.5 7.5,7.5l135.198,0c4.142,0 7.5,-3.357 7.5,-7.5s-3.358,-7.5 -7.5,-7.5z"/>
    <path fill="#ffca00" d="m167.401,425l-30,0c-4.142,0 -7.5,3.357 -7.5,7.5s3.358,7.5 7.5,7.5l30,0c4.142,0 7.5,-3.357 7.5,-7.5s-3.358,-7.5 -7.5,-7.5z"/>
    <path fill="#ffca00" d="m206.789,210.599l56.422,0c10.014,0 18.162,-8.147 18.162,-18.161l0,-53.994c0,-4.143 -3.358,-7.5 -7.5,-7.5l-77.745,0c-4.142,0 -7.5,3.357 -7.5,7.5l0,53.994c-0.001,10.013 8.147,18.161 18.161,18.161zm59.584,-18.161c0,1.743 -1.418,3.161 -3.162,3.161l-56.422,0c-1.743,0 -3.162,-1.418 -3.162,-3.161l0,-46.494l62.745,0l0,46.494l0.001,0z"/>
    <path fill="#ffca00" d="m380.236,225.074l-17.637,0c-28.371,0 -51.452,-23.081 -51.452,-51.452l0,-85.179c0,-4.143 -3.358,-7.5 -7.5,-7.5l-22.274,0l0,-34.571c0,-25.569 -20.803,-46.372 -46.373,-46.372s-46.373,20.803 -46.373,46.372l0,34.571l-22.274,0c-4.142,0 -7.5,3.357 -7.5,7.5l0,85.179c0,28.371 -23.082,51.452 -51.452,51.452l-17.637,0c-20.547,0 -37.264,16.717 -37.264,37.264l0,152.693c0,4.143 3.358,7.5 7.5,7.5s7.5,-3.357 7.5,-7.5l0,-152.693c0,-12.276 9.988,-22.264 22.264,-22.264l10.137,0l0,222.426c0,4.143 3.358,7.5 7.5,7.5l255.198,0c4.142,0 7.5,-3.357 7.5,-7.5l0,-222.426l10.137,0c12.276,0 22.264,9.987 22.264,22.264l0,152.693c0,4.143 3.358,7.5 7.5,7.5s7.5,-3.357 7.5,-7.5l0,-152.693c0,-20.547 -16.716,-37.264 -37.264,-37.264zm-265.335,229.926l0,-215.347c33.123,-3.738 58.952,-31.926 58.952,-66.031l0,-77.679l14.774,0l0,2.5c0,4.143 3.358,7.5 7.5,7.5s7.5,-3.357 7.5,-7.5l0,-2.5l62.745,0l0,2.5c0,4.143 3.358,7.5 7.5,7.5s7.5,-3.357 7.5,-7.5l0,-2.5l14.774,0l0,77.679c0,34.105 25.829,62.293 58.952,66.031l0,215.347l-240.197,0zm88.726,-408.628c0,-17.299 14.074,-31.372 31.373,-31.372s31.373,14.073 31.373,31.372l0,34.571l-62.745,0l0,-34.571l-0.001,0z"/>
</svg>