<svg width="190" height="190" xmlns="http://www.w3.org/2000/svg" xmlns:svg="http://www.w3.org/2000/svg">

    <path d="m168.46347,130.1882l-144.92693,0c-5.99285,0 -10.86954,4.87669 -10.86954,10.86954l0,21.73907c0,9.98537 8.13041,18.11578 18.11578,18.11578l130.43444,0c9.98537,0 18.11578,-8.13041 18.11578,-18.11578l0,-21.73907c0,-5.99285 -4.87669,-10.86954 -10.86954,-10.86954zm3.62329,32.60861c0,5.99285 -4.87669,10.86954 -10.86954,10.86954l-130.43444,0c-5.99285,0 -10.86954,-4.87669 -10.86954,-10.86954l0,-21.73907c0,-1.99999 1.6233,-3.62329 3.62329,-3.62329l144.92727,0c1.99999,0 3.62329,1.6233 3.62329,3.62329l0,21.73907l-0.00034,0z" fill="#ffca00"/>
    <path stroke="null" d="m96,7c-13.98536,0 -25.36237,11.37667 -25.36237,25.36237s11.37667,25.36237 25.36237,25.36237s25.36237,-11.37667 25.36237,-25.36237s-11.37701,-25.36237 -25.36237,-25.36237zm0,43.47815c-9.98537,0 -18.11578,-8.13041 -18.11578,-18.11578s8.13041,-18.11612 18.11578,-18.11612s18.11578,8.13041 18.11578,18.11578s-8.13041,18.11612 -18.11578,18.11612z" fill="#ffca00"/>
    <path stroke="null" d="m30.78278,144.68069c-1.99999,0 -3.62329,1.6233 -3.62329,3.62329l0,14.49283c0,1.99999 1.6233,3.62329 3.62329,3.62329s3.62329,-1.6233 3.62329,-3.62329l0,-14.49283c0,-1.99999 -1.6233,-3.62329 -3.62329,-3.62329z" fill="#ffca00"/>
    <path stroke="null" d="m52.52185,144.68069c-1.99999,0 -3.62329,1.6233 -3.62329,3.62329l0,14.49283c0,1.99999 1.6233,3.62329 3.62329,3.62329s3.62329,-1.6233 3.62329,-3.62329l0,-14.49283c0,-1.99999 -1.6233,-3.62329 -3.62329,-3.62329z" fill="#ffca00"/>
    <path stroke="null" d="m74.26093,144.68069c-1.99999,0 -3.62329,1.6233 -3.62329,3.62329l0,14.49283c0,1.99999 1.6233,3.62329 3.62329,3.62329s3.62329,-1.6233 3.62329,-3.62329l0,-14.49283c0,-1.99999 -1.6233,-3.62329 -3.62329,-3.62329z" fill="#ffca00"/>
    <path stroke="null" d="m117.73908,144.68069c-1.99999,0 -3.62329,1.6233 -3.62329,3.62329l0,14.49283c0,1.99999 1.6233,3.62329 3.62329,3.62329s3.62329,-1.6233 3.62329,-3.62329l0,-14.49283c0,-1.99999 -1.6233,-3.62329 -3.62329,-3.62329z" fill="#ffca00"/>
    <path stroke="null" d="m139.47815,144.68069c-1.99999,0 -3.62329,1.6233 -3.62329,3.62329l0,14.49283c0,1.99999 1.6233,3.62329 3.62329,3.62329c1.99999,0 3.62329,-1.6233 3.62329,-3.62329l0,-14.49283c0,-1.99999 -1.6233,-3.62329 -3.62329,-3.62329z" fill="#ffca00"/>
    <path stroke="null" d="m161.21722,144.68069c-1.99999,0 -3.62329,1.6233 -3.62329,3.62329l0,14.49283c0,1.99999 1.6233,3.62329 3.62329,3.62329c1.99999,0 3.62329,-1.6233 3.62329,-3.62329l0,-14.49283c0,-1.99999 -1.6233,-3.62329 -3.62329,-3.62329z" fill="#ffca00"/>
    <path stroke="null" d="m96,144.68069c-1.99999,0 -3.62329,1.6233 -3.62329,3.62329l0,14.49283c0,1.99999 1.6233,3.62329 3.62329,3.62329s3.62329,-1.6233 3.62329,-3.62329l0,-14.49283c0,-1.99999 -1.6233,-3.62329 -3.62329,-3.62329z" fill="#ffca00"/>
    <path d="m116.21021,38.78253c-1.94191,-0.52887 -3.92764,0.60156 -4.45651,2.52887c-0.52887,1.93478 0.60156,3.92764 2.52887,4.45651c29.76792,8.1885 50.55795,35.45643 50.55795,66.30417l0,18.11578l-137.68103,0l0,-18.11578c0,-30.84775 20.78969,-58.11568 50.55795,-66.30417c1.92764,-0.53634 3.05808,-2.52887 2.52887,-4.45651c-0.53634,-1.92764 -2.54347,-3.05808 -4.45651,-2.52887c-32.89835,9.05059 -55.87655,39.18842 -55.87655,73.28955l0,21.73907c0,1.99999 1.6233,3.62329 3.62329,3.62329l144.92727,0c1.99999,0 3.62329,-1.6233 3.62329,-3.62329l0,-21.73907c-0.00034,-34.10113 -22.97854,-64.23896 -55.87689,-73.28955z" fill="#ffca00"/>
</svg>