<svg width="190" height="190" xmlns="http://www.w3.org/2000/svg" xmlns:svg="http://www.w3.org/2000/svg">

    <path stroke="null" d="m182.20686,143.20118c-1.46026,-4.90616 -0.47384,-10.79697 0.89116,-18.94997c1.29248,-7.71933 2.90097,-17.3262 2.90097,-29.60369s-1.60849,-21.88471 -2.90097,-29.60404c-1.365,-8.15265 -2.35106,-14.04381 -0.89116,-18.94962c0.28544,-0.95834 0.59612,-1.91775 0.92528,-2.93261c1.98173,-6.11724 4.22864,-13.05028 -0.19124,-18.67448c-2.33969,-2.97775 -5.35476,-4.48778 -8.95991,-4.48778c-3.56747,0 -7.21599,1.50647 -10.74436,2.96353c-1.39841,0.57728 -2.84445,1.17446 -4.25352,1.66572c-4.52119,1.57614 -10.02027,2.31018 -17.30629,2.31018c-6.49368,0 -13.56464,-0.58332 -21.05114,-1.20041c-8.29874,-0.68427 -16.87937,-1.39201 -25.62601,-1.39201c-8.74734,0 -17.32833,0.70774 -25.62672,1.39201c-7.48579,0.61709 -14.55675,1.20041 -21.05078,1.20041c-7.28602,0 -12.78545,-0.7344 -17.30664,-2.31018c-1.40943,-0.49126 -2.85511,-1.08844 -4.25352,-1.66572c-3.52837,-1.45706 -7.17689,-2.96353 -10.74436,-2.96353c-3.60586,0 -6.62058,1.51003 -8.96062,4.48778c-4.41846,5.62385 -2.17226,12.55689 -0.19018,18.67377c0.32881,1.01522 0.63984,1.97462 0.92528,2.93296c1.46026,4.90616 0.47384,10.79697 -0.89116,18.94962c-1.29248,7.71969 -2.90097,17.32691 -2.90097,29.6044s1.60849,21.88471 2.90097,29.60369c1.365,8.15265 2.35142,14.04381 0.89116,18.94997c-0.28544,0.9587 -0.59647,1.9181 -0.92564,2.93367c-1.98173,6.11653 -4.22829,13.04921 0.19124,18.67306c2.3404,2.97811 5.35512,4.48778 8.96062,4.48778c3.56747,-0.00036 7.21599,-1.50683 10.74472,-2.96353c1.39841,-0.57728 2.8441,-1.17446 4.25317,-1.66572c4.52119,-1.57614 10.02027,-2.31018 17.30664,-2.31018c6.49368,0 13.56464,0.58332 21.05114,1.20041c8.29874,0.68427 16.87973,1.39201 25.62636,1.39201c8.74699,0 17.32797,-0.70774 25.62636,-1.39201c7.48614,-0.61709 14.55675,-1.20041 21.05078,-1.20041c7.28602,0 12.78545,0.73404 17.30629,2.31018c1.40943,0.49161 2.85511,1.08844 4.25388,1.66608c3.52801,1.45671 7.17618,2.96318 10.744,2.96318c3.60515,0 6.62023,-1.51003 8.96027,-4.48778c4.41917,-5.62385 2.17262,-12.55689 0.19089,-18.67377c-0.32952,-1.01557 -0.64055,-1.97462 -0.92599,-2.93296zm-6.8136,2.02794c0.30961,1.04045 0.64802,2.08553 0.97576,3.09648c1.84843,5.70525 2.91554,9.62926 0.98216,12.0898c-1.22316,1.55659 -2.34289,1.77094 -3.37019,1.77094c-2.15733,0 -5.01067,-1.17766 -8.03072,-2.425c-1.48905,-0.61496 -3.02894,-1.25089 -4.62676,-1.80755c-5.29647,-1.8463 -11.5399,-2.70653 -19.64704,-2.70653c-6.78658,0 -13.99902,0.59505 -21.63482,1.22459c-8.15478,0.67254 -16.58753,1.36784 -25.04197,1.36784c-8.45373,0 -16.88684,-0.69529 -25.04197,-1.36784c-7.63615,-0.62989 -14.84894,-1.22459 -21.63517,-1.22459c-8.1075,0 -14.35022,0.86023 -19.64704,2.70653c-1.59747,0.55666 -3.137,1.19224 -4.62605,1.8072c-3.02076,1.24734 -5.8741,2.425 -8.03179,2.42535c-1.02766,0 -2.14702,-0.21435 -3.37054,-1.77094c-1.93303,-2.46055 -0.86627,-6.3842 0.98251,-12.08909c0.32739,-1.0113 0.66615,-2.05638 0.97576,-3.09719c1.93019,-6.48408 0.77279,-13.39792 -0.69281,-22.15167c-1.24876,-7.45984 -2.80322,-16.74358 -2.80322,-28.42993c0,-11.6867 1.55446,-20.97045 2.80357,-28.42993c1.46559,-8.75374 2.62299,-15.66758 0.69281,-22.15202c-0.30961,-1.04045 -0.64802,-2.08517 -0.97576,-3.09612c-1.84843,-5.70561 -2.91554,-9.62926 -0.98251,-12.0898c1.22316,-1.55659 2.34289,-1.77094 3.3709,-1.77094c2.15733,0 5.01067,1.17802 8.03108,2.425c1.4887,0.6146 3.02858,1.25089 4.62641,1.80755c5.29647,1.8463 11.53954,2.70653 19.64704,2.70653c6.78658,0 13.99902,-0.59505 21.63482,-1.22459c8.15478,-0.67254 16.58753,-1.36784 25.04233,-1.36784c8.45373,0 16.88648,0.69529 25.04162,1.36784c7.63615,0.62953 14.84894,1.22459 21.63517,1.22459c8.10715,0 14.35022,-0.86023 19.64704,-2.70653c1.59747,-0.55666 3.137,-1.19259 4.62641,-1.80755c3.02041,-1.24698 5.87339,-2.425 8.03108,-2.425c1.02766,0 2.14702,0.2147 3.37019,1.77094c1.93374,2.4609 0.86663,6.38491 -0.98251,12.09052c-0.32739,1.01059 -0.66579,2.05531 -0.9754,3.09577c-1.93019,6.48408 -0.77279,13.39792 0.69281,22.15167c1.24911,7.45948 2.80357,16.74323 2.80357,28.42993c0,11.68635 -1.55446,20.97009 -2.80357,28.42993c-1.46595,8.75339 -2.62335,15.66758 -0.69316,22.15167z" fill="#ffca00"/>

    <path stroke="null" d="m30.90062,82.52665c-0.65223,-2.19051 -2.95779,-3.43869 -5.14748,-2.78604c-2.19093,0.65182 -3.43827,2.95655 -2.78563,5.14706c2.12099,7.12651 1.49152,14.55431 0.59553,20.88002c-0.32032,2.26335 1.25438,4.35744 3.51732,4.67817c0.19699,0.02773 0.39233,0.04139 0.5856,0.04139c2.02828,0 3.79998,-1.49235 4.09257,-3.5587c1.02097,-7.21094 1.71748,-15.74951 -0.85791,-24.4019z" fill="#ffca00"/>

    <path stroke="null" d="m94.49964,99.571c-9.28223,0 -16.83364,7.57745 -16.83364,16.89131c0,9.3136 7.5514,16.89105 16.83364,16.89105c9.28197,0 16.83337,-7.57745 16.83337,-16.89105c0,-9.31386 -7.5514,-16.89131 -16.83337,-16.89131zm0,28.46653c-6.35109,0 -11.51781,-5.1925 -11.51781,-11.57522s5.16672,-11.57548 11.51781,-11.57548c6.35082,0 11.51754,5.19277 11.51754,11.57548c0,6.38272 -5.16672,11.57522 -11.51754,11.57522z" fill="#ffca00"/>

    <path stroke="null" d="m93.99966,65.328c-6.5182,0 -11.82066,5.62606 -11.82066,12.5417c0,6.91564 5.30246,12.54202 11.82066,12.54202c6.51788,0 11.82034,-5.62638 11.82034,-12.54202c0,-6.91564 -5.30278,-12.5417 -11.82034,-12.5417zm0,18.66279c-2.97756,0 -5.40005,-2.74609 -5.40005,-6.12141c0,-3.37499 2.4225,-6.12109 5.40005,-6.12109c2.97724,0 5.39973,2.74609 5.39973,6.12109c0,3.37564 -2.4225,6.12141 -5.39973,6.12141z" fill="#ffca00"/>

    <path stroke="null" d="m119.22801,76.661c-5.13983,0 -9.321,4.39553 -9.321,9.79828s4.18117,9.79828 9.321,9.79828c5.13983,0 9.321,-4.39553 9.321,-9.79828s-4.18143,-9.79828 -9.321,-9.79828zm0,14.58079c-2.34791,0 -4.25813,-2.14535 -4.25813,-4.78226c0,-2.63717 1.91022,-4.78226 4.25813,-4.78226c2.34791,0 4.25813,2.14535 4.25813,4.78226c0,2.63692 -1.91022,4.78226 -4.25813,4.78226z" fill="#ffca00"/>

    <path stroke="null" d="m68.772,77.661c-5.13957,0 -9.321,4.43659 -9.321,9.88981s4.18143,9.88981 9.321,9.88981c5.13957,0 9.321,-4.43659 9.321,-9.88981s-4.18143,-9.88981 -9.321,-9.88981zm-0.00025,14.71701c-2.34791,0 -4.25813,-2.16539 -4.25813,-4.82694c0,-2.6618 1.91022,-4.82694 4.25813,-4.82694c2.34791,0 4.25813,2.16539 4.25813,4.82694c0.00025,2.66155 -1.90997,4.82694 -4.25813,4.82694z" fill="#ffca00"/>

    <path stroke="null" d="m167.01298,106.90584c-2.33535,-7.84679 -1.64136,-16.02486 -0.65436,-22.98992c0.3527,-2.49165 -1.38071,-4.79739 -3.87282,-5.151c-2.4871,-0.35133 -4.79739,1.38071 -5.151,3.87282c-1.12462,7.93929 -1.89198,17.34041 0.94417,26.8682c0.58874,1.97856 2.40188,3.2581 4.3654,3.2581c0.43016,0 0.86807,-0.06197 1.30142,-0.19093c2.41236,-0.71769 3.78578,-3.25537 3.06718,-5.66728z" fill="#ffca00"/>

</svg>