<svg width="190" height="190" xmlns="http://www.w3.org/2000/svg" xmlns:svg="http://www.w3.org/2000/svg">
    <g>
        <path stroke="null" d="m170.85646,33.96336l-35.37464,-11.46231c-0.84695,-0.29258 -1.73781,-0.43955 -2.63387,-0.43437l-0.498,0l-7.47001,-9.96001c-0.44924,-0.59898 -1.12188,-0.99012 -1.86474,-1.08453c-0.11655,0 -0.23309,0.0083 -0.3486,0.0249l0,-0.04703l-55.33339,0l0,0.04703c-0.11551,-0.0166 -0.23205,-0.0249 -0.3486,-0.0249c-0.74285,0.09441 -1.4155,0.48555 -1.86474,1.08453l-7.47001,9.96001l-0.498,0c-0.87288,-0.00692 -1.74058,0.13211 -2.56747,0.41223l-35.60427,11.53978c-4.2247,1.64963 -6.99898,5.72908 -6.98031,10.26434l0,44.18371c0,1.52789 1.23878,2.76667 2.76667,2.76667l24.90003,0l0,83.00009c0,1.52789 1.23878,2.76667 2.76667,2.76667l105.13345,0c1.52789,0 2.76667,-1.23878 2.76667,-2.76667l0,-83.00009l24.90003,0c1.52789,0 2.76667,-1.23878 2.76667,-2.76667l0,-44.18371c0.00173,-4.59233 -2.84448,-8.70429 -7.14354,-10.31968zm-43.63038,-9.50628l-21.04606,18.70822l-7.03011,-7.03564l23.02423,-18.42049l5.05194,6.74791zm-12.44448,-7.92374l-19.78169,15.82535l-19.78169,-15.82535l39.56338,0zm-46.94762,1.162l23.01592,18.43432l-7.03841,7.03564l-21.03776,-18.70822l5.06024,-6.76174zm104.63268,68.00474l-22.13336,0l0,-16.60002l-5.53334,0l0,102.36678l-99.60011,0l0,-102.36678l-5.53334,0l0,16.60002l-22.13336,0l0,-41.41704c-0.02248,-2.20469 1.28892,-4.20465 3.32,-5.06301l35.50191,-11.50105c0.2573,-0.08265 0.52636,-0.12277 0.7968,-0.11897l0.83,0l24.11429,21.43616c1.0956,0.97352 2.76044,0.92372 3.79587,-0.11343l9.10788,-9.11064l9.11064,9.11064c1.03543,1.03716 2.70027,1.08696 3.79587,0.11343l24.11429,-21.43616l0.83,0c0.29361,-0.00242 0.5855,0.0453 0.8632,0.1411l35.27504,11.42358c2.10474,0.82481 3.486,2.85797 3.4777,5.11834l0,41.41704z" fill="#ffca00"/>
    </g>
</svg>